# xmcd CD database file
#
# Track frame offsets:
#	150
#	18031
#	38830
#	56158
#	76260
#	97634
#	115881
#	133436
#	152884
#	175968
#
# Disc length: 2556 seconds
#
# Revision: 0
# Processed by: cddbd v1.5.2PL0 Copyright (c) Steve Scherf et al.
# Submitted via: CDex 1.70beta2
#
DISCID=7809fa0a
DTITLE=Renee Morgan Brooks - Here And Now
DYEAR=2000
DGENRE=New Age
TTITLE0=Hey Mister
TTITLE1=Believe in Yourself
TTITLE2=Love Begins at Home
TTITLE3=Wake Up Everybody
TTITLE4=Come in From The Rain
TTITLE5=Ordinary Miracles
TTITLE6=Prayer of St. Francis
TTITLE7=It's Time Now
TTITLE8=Touch Somebody's Life
TTITLE9=Human Heart
EXTD=YEAR: 2000
EXTT0=
EXTT1=
EXTT2=
EXTT3=
EXTT4=
EXTT5=
EXTT6=
EXTT7=
EXTT8=
EXTT9=
PLAYORDER=
